<?xml version="1.0" encoding="utf-8"?>
<!-- Generator: Adobe Illustrator 27.0.0, SVG Export Plug-In . SVG Version: 6.00 Build 0)  -->
<svg version="1.1" id="Capa_1" xmlns="http://www.w3.org/2000/svg" xmlns:xlink="http://www.w3.org/1999/xlink" x="0px" y="0px"
	 viewBox="0 0 1080 1080" style="enable-background:new 0 0 1080 1080;" xml:space="preserve">
<style type="text/css">
	.st0{fill:#2C3E50;}
	.st1{fill:url(#SVGID_1_);}
	.st2{fill:#FFFFFF;}
	.st3{fill:url(#SVGID_00000047742688466124887490000014986476903764842153_);}
</style>
<g>
	<g>
		<path class="st0" d="M907.4,538.3c0.3-0.3,0.7-0.6,1.1-0.9c12.9-9.5,24.6-20.2,34.3-32.6c5.7-7.3,10.7-15.1,14.8-23.6
			c4.6-9.5,8.1-19,10.5-28.4c0.6-2.3,1.1-4.7,1.5-7c1.3-7,2-13.9,2-20.8v0c0-1.5,0-3-0.1-4.5v-0.2c-0.1-1.5-0.2-2.9-0.3-4.4
			c0-0.1,0-0.2,0-0.3c-0.1-1.4-0.3-2.7-0.5-4.1l-0.1-0.6c-0.2-1.3-0.3-2.5-0.6-3.8c-0.1-0.3-0.1-0.5-0.2-0.8
			c-0.2-1.4-0.5-2.7-0.8-4.1c-0.5-2.1-1-4.1-1.6-6.1c-0.2-0.9-0.5-1.9-0.9-2.9c-0.5-1.5-1-3-1.5-4.5c-1.9-5.2-4.3-10.3-7.1-15.4
			c-0.8-1.4-1.6-2.9-2.5-4.3c-2.1-3.5-4.4-7-7-10.4c-1.1-1.5-2.3-3-3.5-4.6c-19.4-24.4-45.9-37.7-76.5-43c-0.9-0.2-1.8-0.3-2.7-0.5
			c-2.3-0.4-4.7-0.7-7.1-1.1H852c-6.6-0.4-13.2-0.4-19.8,0h-5c-0.1,0-0.1,0-0.2,0c-2.7,0.3-5.4,0.7-8,1.2c-1.4,0.2-2.9,0.3-4.3,0.6
			c-0.5,0.1-1,0.1-1.4,0.1c-0.2,0-0.4,0.1-0.6,0c-0.9,0-1.6-0.2-2-0.7c-0.4-0.4-0.6-1-0.6-2c0-0.2,0-0.4,0-0.6
			c0-0.4,0.1-0.9,0.2-1.4c1.8-10.7,2.6-21.5,2.3-32.3c-0.1-3-0.2-5.9-0.5-8.9c-0.2-3.4-0.6-6.8-1.1-10.1c-0.3-2.1-0.6-4.1-1-6.1
			c-1.6-9.1-4.1-18-7.4-26.5c-1.1-2.8-2.4-5.6-3.7-8.3c-5.4-10.9-12.6-21.2-21.8-30.6l-0.9-0.9c-6.2-6.2-12.7-11.5-19.6-15.9
			c-12.2-7.9-25.5-13.1-39.6-15.5c-10-1.8-20.5-2.2-31.4-1.3c-24.8,2.1-46.1,10.7-64.6,24.2c-10.3,7.5-19.6,16.6-28.1,26.9
			c-1.2,1.4-2.4,2.9-3.6,4.4c-20.4,26.2-33.4,55.8-40.5,87.9c-1,4.3-1.8,8.7-2.6,13.1c-1.7,10.2-3,20.5-3.9,30.8
			c-1,10.5-1.6,21-2,31.6c-0.2,6.2-0.3,12.3-0.3,18.5H540c0-6.2-0.1-12.3-0.3-18.5c-0.4-10.6-1-21.1-2-31.6
			c-1-10.3-2.2-20.6-3.9-30.8c-0.7-4.4-1.6-8.8-2.6-13.1c-7-32.1-20-61.7-40.5-87.9c-1.1-1.5-2.3-3-3.5-4.4
			c-8.5-10.3-17.9-19.4-28.1-26.9c-18.4-13.5-39.8-22.1-64.6-24.2c-10.9-0.9-21.4-0.5-31.4,1.3c-14.2,2.5-27.4,7.6-39.6,15.5
			c-6.9,4.4-13.4,9.7-19.6,15.9l-0.9,0.9c-9.3,9.4-16.4,19.7-21.8,30.6c-1.4,2.7-2.6,5.5-3.7,8.3c-3.4,8.5-5.8,17.3-7.4,26.5
			c-0.4,2.1-0.7,4.1-1,6.1c-0.5,3.4-0.8,6.7-1.1,10.1c-0.2,3-0.4,5.9-0.5,8.9c-0.3,10.9,0.5,21.7,2.3,32.3c0.1,0.5,0.2,1,0.2,1.4
			c0,0.2,0,0.4,0,0.6c0,0.9-0.2,1.5-0.6,2c-0.4,0.4-1.1,0.6-2,0.7c-0.2,0-0.4,0-0.6,0c-0.4,0-0.9-0.1-1.4-0.1
			c-1.4-0.2-2.9-0.4-4.3-0.6c-2.7-0.5-5.3-0.9-8-1.2c-0.1,0-0.1,0-0.2,0h-5c-6.6-0.4-13.2-0.4-19.8,0h-6.8c-2.4,0.4-4.7,0.7-7.1,1.1
			c-0.9,0.1-1.8,0.3-2.7,0.5c-30.6,5.3-57,18.5-76.5,43c-1.2,1.5-2.4,3-3.5,4.6c-2.6,3.4-4.9,6.9-7,10.4c-0.9,1.4-1.7,2.9-2.5,4.3
			c-2.8,5.1-5.1,10.2-7.1,15.4c-0.6,1.5-1.1,3-1.5,4.5c-0.3,1-0.6,1.9-0.9,2.9c-0.6,2-1.1,4.1-1.6,6.1c-0.3,1.4-0.6,2.7-0.9,4.1
			c-0.1,0.3-0.1,0.5-0.1,0.8c-0.2,1.3-0.4,2.6-0.6,3.8c0,0.2-0.1,0.4-0.1,0.6c-0.2,1.4-0.3,2.7-0.5,4.1c0,0.1,0,0.2,0,0.3
			c-0.1,1.5-0.2,2.9-0.3,4.4v0.2c-0.1,1.5-0.1,3-0.1,4.5v0c0,6.9,0.7,13.8,2,20.8c0.4,2.3,1,4.7,1.5,7c2.3,9.4,5.8,18.9,10.5,28.4
			c4.1,8.5,9.1,16.4,14.8,23.6c9.7,12.3,21.4,23,34.3,32.6c0.4,0.3,0.8,0.6,1.1,0.9c0.2,0.1,0.3,0.3,0.4,0.4c0.6,0.7,1,1.3,1,1.9
			c0,0.6-0.3,1.2-1,1.8c-0.1,0.1-0.1,0.1-0.2,0.2c-3.1,2.2-6.2,4.3-9.3,6.7c-0.1,0.1-0.1,0.1-0.2,0.1l-4,3.9
			c-4.3,3.7-8.3,7.6-12.2,11.8c-0.5,0.6-1,1.2-1.5,1.7l-4.8,4.7c-1.4,1.9-2.9,3.8-4.3,5.8c-0.5,0.7-1.1,1.4-1.6,2.2
			c-1,1.5-2.1,3-3.1,4.5c-0.2,0.3-0.4,0.5-0.6,0.8c-5.3,7.7-9.7,15.7-13.3,24.1c-1.2,2.8-2.2,5.7-3.2,8.6
			c-3.8,11.6-5.9,23.9-5.9,37.1v1.2c0.1,8.7,1,17.1,2.8,25.1c3.1,14.2,9,27.2,17.3,38.9c5.9,8.3,13.1,15.9,21.5,22.9
			c19.1,15.9,40.4,24.7,63,28c12.6,1.8,25.6,1.9,38.9,0.6c1.9-0.2,3.8-0.4,5.6-0.7c3.5-0.5,7-1,10.5-1.7c0.2,0.1,0.5,0.2,0.6,0.4
			c0.4,0.5,0.6,1.1,0.6,2c0,0.2,0,0.4,0,0.6c0,0.4-0.1,0.9-0.2,1.4c-1.8,10.7-2.6,21.5-2.3,32.3c0.1,3,0.3,5.9,0.5,8.9
			c0.2,3.4,0.6,6.8,1.1,10.1c0.3,2.1,0.6,4.1,1,6.2c1.6,9.1,4.1,18,7.4,26.5c1.1,2.8,2.4,5.6,3.7,8.3c5.4,10.9,12.6,21.2,21.8,30.6
			l0.9,0.9c6.2,6.2,12.7,11.5,19.6,15.9c12.2,7.9,25.5,13.1,39.6,15.5c10,1.8,20.5,2.2,31.4,1.3c24.8-2.1,46.1-10.7,64.6-24.2
			c10.3-7.5,19.6-16.6,28.1-26.9c1.2-1.4,2.4-2.9,3.5-4.4c13.1-16.8,23.1-35,30.5-54.3c-1.7-1.2-3.3-2.3-4.8-3.3
			c-5.5-3.9-10.9-8.2-15.9-12.6c-3-2.7-5.7-5.2-8.3-7.8c-0.1-0.1-0.1-0.1-0.2-0.2c-1-1-2-2.1-3-3.1c-1.5-1.7-3.1-3.4-4.8-5.3
			c-0.5-0.5-1-1.1-1.4-1.7c-1.2-1.4-2.3-2.8-3.4-4.2h-1.3c-12.9,0-25.6-1.5-38.1-4.5c-80.4-19.3-112.6-92-118.2-106.4
			c-3.3-8.5,0.9-18.1,9.4-21.5c8.5-3.3,18.1,0.9,21.5,9.4c2.8,7.2,29.4,70.6,95.1,86.3c5.3,1.3,10.7,2.2,16.2,2.8
			c-0.3-1.4-0.5-2.8-0.7-4.2c-0.1-0.8-0.2-1.7-0.2-2.5v-7.9c0-0.8,0.1-1.6,0.2-2.4c0.1-0.8,0.2-1.5,0.3-2.3c0-0.2,0.1-0.4,0.1-0.6
			c0-0.1,0.1-0.2,0.1-0.3c2.2-12.6,8.3-23.2,17.7-30.7c0.5-0.4,1-0.8,1.6-1.2c0.1,0,0.1-0.1,0.2-0.1c1.3-0.9,2.6-1.8,3.8-2.5
			c0.1-0.1,0.3-0.2,0.4-0.3l0.3-0.2l0.8-0.5c0.1-0.1,0.3-0.1,0.4-0.2c2.1-1.1,4.2-2.1,6.3-2.9c0.1,0,0.1-0.1,0.2-0.1l0.2-0.1
			c0.4-0.2,0.8-0.3,1.2-0.4c0.5-0.2,1.1-0.4,1.7-0.5c0.5-0.2,1-0.3,1.5-0.4l0.2-0.1c0.2-0.1,0.3-0.1,0.5-0.1
			c0.4-0.1,0.8-0.2,1.3-0.3c0.4-0.1,0.9-0.2,1.3-0.2l0.2,0l0.5-0.1c0.5-0.1,0.9-0.1,1.3-0.2c0.5-0.1,1-0.1,1.5-0.2
			c0.2,0,0.4,0,0.6,0l0.2,0l0.6,0c0.5,0,0.9-0.1,1.3-0.1c0.4,0,0.7,0,1.1,0h0c2.8,0,5.6,0.3,8.6,0.8c1,0.2,2.1,0.4,3.1,0.7
			c3.5,0.9,7,2.2,10.5,3.8c0,0,0.1,0.1,0.1,0.1c2.3,1.1,4.6,2.5,6.7,3.9c0.2-0.1,0.3-0.2,0.5-0.3c3.1-2.1,6.2-3.8,9.4-5.1
			c0.1,0,0.1-0.1,0.2-0.1c0.9-0.4,2-0.8,3.4-1.3c4.9-1.6,9.9-2.4,15.1-2.4h0.5c3.5,0.1,6.9,0.4,10.1,1.2c6,1.3,11.5,3.8,16.5,7.4
			c3.3,2.3,6.5,5.3,9.3,8.7c6,7.3,9.8,15.7,11.1,25.1c0.6,4.5,0.7,9.2,0.3,14c-0.1,0.9-0.2,1.8-0.3,2.6c-0.1,0.9-0.2,1.7-0.4,2.5
			c5.5-0.6,11-1.5,16.3-2.8c65.7-15.7,92.3-79.1,95.1-86.3c3.3-8.5,12.9-12.7,21.5-9.4c8.5,3.3,12.7,13,9.4,21.5
			c-5.7,14.4-37.9,87.2-118.2,106.4c-12.5,3-25.2,4.5-38.1,4.5h-1.5c-1.1,1.5-2.3,3-3.6,4.4c-2,2.4-4,4.6-5.8,6.5
			c-0.1,0.1-0.2,0.2-0.3,0.3c-1.1,1.2-2.3,2.4-3.7,3.8c-3,2.9-5.7,5.5-8.3,7.8c-4.5,4-9.5,7.9-14.8,11.8c-1.6,1.2-3.3,2.3-4.9,3.4
			c7.4,19.4,17.4,37.6,30.5,54.4c1.2,1.5,2.4,3,3.6,4.4c8.5,10.3,17.9,19.4,28.1,26.9c18.4,13.5,39.8,22.1,64.6,24.2
			c10.9,0.9,21.4,0.5,31.4-1.3c14.2-2.5,27.4-7.6,39.6-15.5c6.9-4.4,13.4-9.7,19.6-15.9l0.9-0.9c9.3-9.4,16.4-19.6,21.8-30.6
			c1.4-2.7,2.6-5.5,3.7-8.3c3.4-8.5,5.8-17.3,7.4-26.5c0.4-2.1,0.7-4.1,1-6.2c0.5-3.3,0.8-6.7,1.1-10.1c0.2-3,0.4-5.9,0.5-8.9
			c0.3-10.9-0.5-21.7-2.3-32.3c-0.1-0.5-0.2-1-0.2-1.4c0-0.2,0-0.4,0-0.6c0-0.9,0.2-1.5,0.6-2c0.2-0.2,0.4-0.3,0.6-0.4
			c3.5,0.6,7,1.2,10.5,1.7c1.9,0.2,3.8,0.5,5.6,0.7c13.3,1.4,26.3,1.3,38.9-0.6c22.6-3.3,43.9-12.1,63-28c8.4-7,15.6-14.6,21.5-22.9
			c8.4-11.7,14.2-24.6,17.3-38.9c1.8-7.9,2.7-16.3,2.8-25.1v-1.2c0-13.2-2.1-25.5-5.9-37.1c-1-2.9-2-5.8-3.2-8.6
			c-3.5-8.4-8-16.4-13.3-24.1c-0.2-0.3-0.4-0.5-0.6-0.8c-1-1.5-2-3-3.1-4.5c-0.5-0.7-1.1-1.5-1.6-2.2c-1.4-1.9-2.9-3.8-4.3-5.8
			l-4.8-4.7c-0.5-0.6-1-1.1-1.5-1.7c-3.9-4.2-7.9-8.1-12.2-11.8l-4-3.9c-0.1-0.1-0.1-0.1-0.2-0.1c-3.1-2.3-6.2-4.5-9.3-6.7
			c-0.1-0.1-0.1-0.1-0.2-0.2c-0.7-0.7-1-1.2-1-1.8c0-0.6,0.3-1.2,1-1.9C907.1,538.5,907.3,538.4,907.4,538.3z M400,543.8
			c-48.3,0-87.4-39.1-87.4-87.4s39.1-87.4,87.4-87.4c48.3,0,87.5,39.1,87.5,87.4S448.3,543.8,400,543.8z M540,672.5
			c-34.4,0-62.4-28-62.4-62.4c0-9.1,7.4-16.6,16.6-16.6c9.1,0,16.6,7.4,16.6,16.6c0,16.2,13.1,29.3,29.3,29.3
			c16.1,0,29.3-13.1,29.3-29.3c0-9.1,7.4-16.6,16.6-16.6c9.1,0,16.6,7.4,16.6,16.6C602.4,644.5,574.4,672.5,540,672.5z M680,543.8
			c-48.3,0-87.4-39.1-87.4-87.4s39.1-87.4,87.4-87.4c48.3,0,87.5,39.1,87.5,87.4S728.3,543.8,680,543.8z"/>
		<path class="st0" d="M700.5,385.9c-28.2,0-51.1,22.9-51.1,51.1c0,28.2,22.9,51.1,51.1,51.1c28.2,0,51.1-22.9,51.1-51.1
			c0-1.7-0.1-3.4-0.3-5.1c-0.9-8.6-3.8-16.5-8.4-23.3C733.8,394.9,718.2,385.9,700.5,385.9z"/>
		<path class="st0" d="M471.4,431.9c-0.9-8.6-3.8-16.5-8.4-23.3c-9.2-13.7-24.8-22.7-42.5-22.7c-28.2,0-51.1,22.9-51.1,51.1
			c0,28.2,22.9,51.1,51.1,51.1c28.2,0,51.1-22.9,51.1-51.1C471.7,435.3,471.6,433.6,471.4,431.9z"/>
		<path class="st0" d="M573.7,783.4c1.1-1.1,2.3-2.3,3.4-3.5c0,0,0.1-0.1,0.1-0.1c1.8-1.9,3.5-3.8,5.2-5.8c1.7-2,3.3-4,4.8-6.1
			c0.7-0.9,1.3-1.8,1.9-2.7c3.4-5.2,5.9-10.8,7.5-16.8c0.5-1.9,0.9-3.9,1.1-6c0.1-0.5,0.1-0.9,0.2-1.4c0.3-3.3,0.3-6.6-0.1-9.8
			c-0.8-5.7-3-11-7-15.8c-1.8-2.1-3.7-3.9-5.8-5.4c-2.9-2.1-6.2-3.6-9.8-4.3c-2-0.5-4.1-0.7-6.3-0.7h-0.3c-3.3,0-6.4,0.5-9.3,1.5
			c-0.7,0.2-1.4,0.5-2.2,0.8c-2.1,0.9-4.1,2-6.1,3.3c-0.4,0.3-0.8,0.6-1.3,0.9c-0.7,0.5-1.4,1-2,1.6c-0.6,0.5-1.1,1-1.7,1.5
			c-2,1.9-3.8,3.9-5.4,6.1c-0.1,0.1-0.1,0.2-0.2,0.3c0,0-0.1,0.1-0.1,0.1c-0.2,0.2-0.3,0.2-0.5,0.2c-0.1,0-0.3-0.1-0.5-0.2
			c0,0-0.1-0.1-0.1-0.1c-0.1-0.1-0.1-0.2-0.2-0.3c-2.4-3.3-5.1-6.2-8.2-8.6c-1.8-1.4-3.8-2.7-5.9-3.7c-2.4-1.1-4.8-2-7.1-2.6
			c-0.6-0.2-1.2-0.3-1.8-0.4c-1.8-0.3-3.5-0.5-5.2-0.5h0c-0.4,0-0.7,0-1.1,0h0c-0.4,0-0.7,0.1-1.1,0.1h-0.1c-0.3,0-0.7,0.1-1,0.1
			h-0.2c-0.3,0.1-0.6,0.1-1,0.2c-0.1,0-0.1,0-0.2,0c-0.3,0.1-0.7,0.1-1,0.2c-0.5,0.1-1,0.2-1.5,0.4c-0.2,0.1-0.5,0.1-0.7,0.2
			c-0.4,0.1-0.7,0.3-1.1,0.4c-1.3,0.5-2.6,1.1-3.9,1.8c-0.4,0.2-0.7,0.4-1.1,0.6c-0.9,0.5-1.8,1.1-2.6,1.7c-0.4,0.3-0.8,0.6-1.1,0.9
			c-6.1,4.9-9.5,11.5-10.8,19.2c0,0.2-0.1,0.4-0.1,0.7c-0.1,0.6-0.2,1.2-0.3,1.8v7.9c0,0,0,0,0,0.1c0.3,2.5,0.8,4.9,1.4,7.3
			c0.7,2.7,1.6,5.3,2.7,7.9c1.3,3,2.8,5.9,4.6,8.6c2,3.1,4.3,6.1,6.7,8.9c0.3,0.4,0.7,0.9,1.1,1.3c1.4,1.6,2.8,3.2,4.2,4.7
			c0.9,1,1.9,2,2.8,3c2.5,2.5,5,4.8,7.5,7.1c4.6,4.1,9.3,7.8,14.3,11.4c1.5,1.1,3,2.1,4.5,3.1c2.1,1.4,4.2,2.8,6.4,4.1
			c0.2,0.1,0.3,0.2,0.5,0.3c0.2,0.1,0.3,0.1,0.5,0.2c0.3,0.1,0.6,0.2,0.9,0.2c0.6,0,1.1-0.2,1.8-0.6c1.7-1.1,3.4-2.2,5.1-3.3
			c2-1.3,3.9-2.7,5.8-4.1c4.6-3.3,9.1-6.9,13.4-10.7C568.7,788.2,571.2,785.8,573.7,783.4z"/>
	</g>
</g>
</svg>
