<?xml version="1.0" standalone="no"?>
<!DOCTYPE svg PUBLIC "-//W3C//DTD SVG 20010904//EN"
 "http://www.w3.org/TR/2001/REC-SVG-20010904/DTD/svg10.dtd">
<svg version="1.0" xmlns="http://www.w3.org/2000/svg"
 width="1024.000000pt" height="1024.000000pt" viewBox="0 0 1024.000000 1024.000000"
 preserveAspectRatio="xMidYMid meet">

<g transform="translate(0.000000,1024.000000) scale(0.100000,-0.100000)"
fill="#000000" stroke="none">
<path d="M5075 7746 c-87 -38 -364 -295 -498 -461 -164 -203 -300 -438 -386
-666 l-37 -97 -70 55 c-157 127 -352 237 -534 301 -197 69 -419 115 -563 116
-120 1 -123 -3 -166 -200 -56 -265 -65 -340 -65 -579 1 -180 5 -243 23 -350
79 -467 259 -826 581 -1158 288 -298 618 -495 1022 -611 439 -126 1032 -126
1471 0 669 192 1221 681 1469 1299 104 260 169 645 154 912 -12 219 -80 606
-114 652 -29 39 -65 46 -182 33 -409 -46 -803 -207 -1051 -430 l-47 -42 -32
82 c-45 117 -155 335 -229 453 -148 238 -391 497 -616 658 -61 43 -91 51 -130
33z m198 -386 c338 -317 600 -797 672 -1230 22 -133 30 -393 16 -515 -56 -479
-279 -891 -668 -1236 -58 -52 -121 -105 -139 -118 l-34 -24 -53 36 c-28 20
-88 69 -133 110 -445 405 -674 895 -674 1441 0 561 285 1164 746 1581 l106 95
36 -29 c21 -16 77 -66 125 -111z m-2053 -624 c155 -32 313 -87 441 -152 143
-73 319 -203 392 -290 l25 -29 -20 -105 c-28 -155 -35 -431 -14 -596 56 -457
262 -874 602 -1221 50 -51 88 -93 83 -93 -35 0 -265 57 -359 89 -365 124 -600
275 -870 557 -228 239 -385 534 -466 874 -29 120 -54 336 -54 460 0 100 23
319 47 443 17 87 17 87 47 87 17 0 83 -11 146 -24z m3970 21 c0 -2 11 -70 25
-152 75 -444 22 -858 -160 -1242 -211 -445 -623 -815 -1110 -998 -102 -38
-321 -97 -408 -109 l-47 -7 103 103 c177 177 284 329 396 558 110 224 173 447
202 710 15 138 5 403 -20 540 l-20 105 84 81 c206 201 487 337 820 399 68 12
135 18 135 12z"/>
<path d="M3373 4203 c-27 -5 -71 -55 -79 -89 -17 -66 138 -364 285 -549 58
-72 215 -226 296 -290 363 -284 778 -425 1257 -425 290 0 578 65 846 191 322
151 602 396 795 695 66 102 155 287 162 338 15 96 -73 164 -160 124 -18 -8
-37 -35 -61 -87 -92 -196 -150 -289 -265 -428 -241 -288 -584 -489 -981 -574
-137 -30 -455 -37 -603 -15 -433 66 -764 243 -1053 560 -116 127 -206 270
-307 488 -10 22 -29 43 -50 52 -33 16 -41 17 -82 9z"/>
<path d="M4654 3763 c-32 -6 -74 -56 -80 -95 -9 -52 19 -102 90 -159 166 -135
401 -190 621 -144 105 22 247 97 322 171 57 56 63 65 63 103 0 85 -47 128
-132 122 -9 0 -40 -22 -70 -47 -114 -98 -212 -137 -349 -137 -133 1 -230 37
-325 124 -50 45 -93 71 -112 68 -4 -1 -17 -4 -28 -6z"/>
</g>
</svg>
