<?xml version="1.0" encoding="utf-8"?>
<!-- Generator: Adobe Illustrator 27.0.0, SVG Export Plug-In . SVG Version: 6.00 Build 0)  -->
<svg version="1.1" id="Capa_1" xmlns="http://www.w3.org/2000/svg" xmlns:xlink="http://www.w3.org/1999/xlink" x="0px" y="0px"
	 viewBox="0 0 1080 1080" style="enable-background:new 0 0 1080 1080;" xml:space="preserve">
<style type="text/css">
	.st0{fill:#2C3E50;}
	.st1{fill:url(#SVGID_1_);}
	.st2{fill:#FFFFFF;}
</style>
<g>
	<g>
		<path class="st0" d="M232,805.8c-7.9,0-13.5,5.1-15.8,10.5l-37.9,97.9l-37.4-96.9c-2.6-6.6-8.1-11.5-16.7-11.5
			c-9.2,0-16.4,7.1-16.4,16.3c0,2.8,0.9,5.3,1.9,7.9l48.5,116.1c3.4,8.3,9.4,13,18.6,13h2.1c9.2,0,15.2-4.7,18.6-13l49-117.2
			c0.9-1.9,1.7-4.7,1.7-7.3C248.3,812.5,241.2,805.8,232,805.8z"/>
		<path class="st0" d="M283.6,840.9c-9.2,0-16.2,7.1-16.2,16.3v84.7c0,9.2,7,16.3,16.2,16.3c9.2,0,16.3-7.1,16.3-16.3v-84.7
			C299.8,848,292.7,840.9,283.6,840.9z M283.6,799.6c-10.3,0-18.2,5.8-18.2,15.2v0.4c0,9.4,7.9,15.4,18.2,15.4
			c10.3,0,18.2-6,18.2-15.4v-0.4C301.7,805.4,293.8,799.6,283.6,799.6z"/>
		<path class="st0" d="M429.4,799.4c-9.2,0-16.3,7.1-16.3,16.3v41.5c-7.7-9.2-18.4-17.1-35.7-17.1c-27.2,0-52.2,20.9-52.2,59.2v0.4
			c0,38.3,25.5,59.2,52.2,59.2c17.1,0,27.8-7.7,35.7-18.6v1.5c0,9.2,7.1,16.3,16.3,16.3c9.2,0,16.2-7.1,16.2-16.3V815.7
			C445.6,806.5,438.6,799.4,429.4,799.4z M413.5,899.7c0,19-12.6,31.6-27.8,31.6c-15.2,0-28-12.6-28-31.6v-0.4
			c0-19.2,12.8-31.6,28-31.6c15.2,0,27.8,12.6,27.8,31.6V899.7z"/>
		<path class="st0" d="M560.8,853.7c-8.3-8.3-20.7-12.8-38.7-12.8c-15.4,0-26.3,1.9-36.6,6c-5.1,1.9-8.8,6.8-8.8,12.6
			c0,7.5,6,13.3,13.5,13.3c1.5,0,3-0.2,4.7-0.9c6.2-1.9,13.3-3.2,22.5-3.2c16.3,0,24.6,7.3,24.6,21v1.9c-8.3-2.8-16.3-4.7-28-4.7
			c-27.2,0-46.2,11.8-46.2,36.6v0.4c0,22.9,17.7,35.1,39.3,35.1c16,0,26.7-5.8,34.6-14.6v0.2c0,6.9,6.2,13.5,15.6,13.5
			c8.8,0,15.8-6.9,15.8-15.6v-52.2C573.2,874.9,569.4,862.3,560.8,853.7z M542.5,916.4c0,12-10,20.1-25.4,20.1
			c-10.5,0-17.8-5.1-17.8-13.9v-0.4c0-10.3,8.6-15.8,22.5-15.8c7.9,0,15,1.7,20.7,4.3V916.4z"/>
		<path class="st0" d="M715,821.6v-0.6c0-7.9-6.6-14.5-14.5-14.5h-95.6c-7.9,0-14.5,6.6-14.5,14.5c0,7.9,6.6,14.3,14.5,14.3h66.5
			l-77.6,90.2c-4.1,4.7-6,9.8-6,15.4v0.6c0,7.9,6.6,14.5,14.5,14.5h98.1c7.9,0,14.5-6.4,14.5-14.3c0-7.9-6.6-14.6-14.5-14.6h-69.1
			l77.6-90.2C713.1,832,715,826.9,715,821.6z"/>
		<path class="st0" d="M842.4,894.5c0-23.9-16.7-55.2-55.2-55.2c-33.4,0-56.7,26.9-56.7,59.7v0.4c0,35.1,25.4,59.2,59.9,59.2
			c16.9,0,29.7-5.3,39.8-13.9c2.4-2.3,4.3-5.3,4.3-9.6c0-7.5-5.1-12.8-12.6-12.8c-3.4,0-5.5,0.9-7.9,2.6c-6.6,4.9-13.9,7.7-23.1,7.7
			c-14.5,0-24.8-7.7-28-22.5h64.4C835.8,910.1,842.4,903.9,842.4,894.5z M762.4,889.8c2.6-14.8,11.1-24.4,24.8-24.4
			c13.7,0,22.2,9.8,24.2,24.4H762.4z"/>
		<path class="st0" d="M933.3,839.3c-16.3,0-26.1,8.8-33.6,18.4v-1.3c0-9.2-7-16.3-16.2-16.3c-9.2,0-16.3,7.1-16.3,16.3v84.7
			c0,9.2,7.1,16.3,16.3,16.3c9.2,0,16.2-7.1,16.2-16.3v-49c0-15.4,7.7-23.3,20.3-23.3c12.6,0,19.7,7.9,19.7,23.3v49
			c0,9.2,7.1,16.3,16.3,16.3c9.2,0,16.2-7.1,16.2-16.3v-59.2C972.2,855.3,958.1,839.3,933.3,839.3z"/>
	</g>
	<g>
		<path class="st0" d="M827.2,424.5c0.2-0.2,0.5-0.4,0.8-0.7c10.1-7.4,19.2-15.8,26.8-25.5c4.5-5.7,8.4-11.8,11.6-18.5
			c3.6-7.5,6.4-14.9,8.2-22.2c0.5-1.8,0.9-3.6,1.2-5.5c1-5.5,1.6-10.9,1.6-16.3v0c0-1.2,0-2.4-0.1-3.5v-0.1c0-1.1-0.1-2.3-0.2-3.4
			c0-0.1,0-0.2,0-0.3c-0.1-1.1-0.2-2.1-0.4-3.2l-0.1-0.4c-0.1-1-0.3-2-0.5-3c0-0.2-0.1-0.4-0.1-0.6c-0.2-1.1-0.4-2.1-0.6-3.2
			c-0.4-1.6-0.8-3.2-1.3-4.8c-0.2-0.7-0.4-1.5-0.7-2.2c-0.4-1.2-0.8-2.3-1.2-3.5c-1.5-4.1-3.4-8-5.5-12c-0.6-1.1-1.3-2.3-2-3.4
			c-1.6-2.7-3.5-5.4-5.4-8.1c-0.9-1.2-1.8-2.4-2.7-3.6c-15.2-19.1-35.9-29.4-59.8-33.6c-0.7-0.1-1.4-0.3-2.1-0.4
			c-1.8-0.3-3.7-0.5-5.5-0.9h-5.3c-5.1-0.3-10.3-0.3-15.5,0h-3.9c-0.1,0-0.1,0-0.2,0c-2.1,0.3-4.2,0.6-6.3,0.9
			c-1.1,0.1-2.2,0.3-3.4,0.4c-0.4,0-0.8,0.1-1.1,0.1c-0.2,0-0.3,0-0.5,0c-0.7,0-1.2-0.2-1.6-0.5c-0.3-0.3-0.5-0.8-0.5-1.5
			c0-0.1,0-0.3,0-0.5c0-0.3,0.1-0.7,0.1-1.1c1.4-8.4,2.1-16.8,1.8-25.3c-0.1-2.3-0.2-4.6-0.4-6.9c-0.2-2.7-0.5-5.3-0.8-7.9
			c-0.2-1.6-0.5-3.2-0.8-4.8c-1.3-7.2-3.2-14.1-5.8-20.7c-0.9-2.2-1.9-4.4-2.9-6.5c-4.2-8.5-9.8-16.6-17.1-23.9l-0.7-0.7
			c-4.9-4.8-10-9-15.3-12.4c-9.5-6.2-19.9-10.2-31-12.2c-7.8-1.4-16-1.7-24.6-1c-19.4,1.6-36.1,8.4-50.5,18.9c-8,5.9-15.3,13-22,21
			c-0.9,1.1-1.9,2.3-2.8,3.5c-16,20.5-26.1,43.6-31.6,68.7c-0.8,3.4-1.4,6.8-2,10.2c-1.3,8-2.3,16-3.1,24.1
			c-0.8,8.2-1.3,16.4-1.6,24.7c-0.2,4.8-0.3,9.6-0.3,14.5h0c0-4.8-0.1-9.7-0.3-14.5c-0.3-8.3-0.8-16.5-1.6-24.7
			c-0.8-8-1.8-16.1-3.1-24.1c-0.6-3.5-1.2-6.9-2-10.2c-5.5-25.1-15.7-48.2-31.6-68.7c-0.9-1.2-1.8-2.3-2.8-3.5
			c-6.7-8.1-14-15.1-22-21c-14.4-10.6-31.1-17.3-50.5-18.9c-8.5-0.7-16.7-0.4-24.6,1c-11.1,1.9-21.4,5.9-31,12.2
			c-5.4,3.4-10.5,7.6-15.3,12.4l-0.7,0.7c-7.3,7.4-12.8,15.4-17.1,23.9c-1.1,2.1-2,4.3-2.9,6.5c-2.6,6.6-4.6,13.5-5.8,20.7
			c-0.3,1.6-0.5,3.2-0.8,4.8c-0.4,2.6-0.6,5.3-0.8,7.9c-0.2,2.3-0.3,4.6-0.4,6.9c-0.3,8.5,0.4,16.9,1.8,25.3
			c0.1,0.4,0.1,0.8,0.1,1.1c0,0.2,0,0.3,0,0.5c0,0.7-0.1,1.2-0.5,1.5c-0.3,0.3-0.9,0.5-1.6,0.5c-0.1,0-0.3,0-0.5,0
			c-0.3,0-0.7,0-1.1-0.1c-1.1-0.2-2.2-0.3-3.4-0.4c-2.1-0.4-4.2-0.7-6.3-0.9c-0.1,0-0.1,0-0.2,0h-3.9c-5.2-0.3-10.3-0.3-15.5,0h-5.3
			c-1.9,0.3-3.7,0.6-5.5,0.9c-0.7,0.1-1.4,0.2-2.1,0.4c-23.9,4.1-44.6,14.5-59.8,33.6c-0.9,1.2-1.9,2.4-2.7,3.6
			c-2,2.7-3.8,5.4-5.5,8.1c-0.7,1.1-1.3,2.3-1.9,3.4c-2.2,4-4,8-5.5,12c-0.4,1.1-0.8,2.3-1.2,3.5c-0.3,0.8-0.5,1.5-0.7,2.2
			c-0.5,1.6-0.9,3.2-1.3,4.8c-0.3,1.1-0.5,2.1-0.7,3.2c0,0.2-0.1,0.4-0.1,0.6c-0.2,1-0.3,2-0.5,3c0,0.1,0,0.3-0.1,0.4
			c-0.1,1.1-0.3,2.1-0.4,3.2c0,0.1,0,0.2,0,0.3c-0.1,1.1-0.2,2.3-0.2,3.4v0.1c-0.1,1.1-0.1,2.3-0.1,3.5v0c0,5.4,0.5,10.8,1.6,16.3
			c0.3,1.8,0.8,3.6,1.2,5.5c1.8,7.3,4.6,14.8,8.2,22.2c3.2,6.7,7.1,12.8,11.6,18.5c7.6,9.7,16.7,18,26.8,25.5
			c0.3,0.3,0.6,0.5,0.8,0.7c0.1,0.1,0.3,0.2,0.3,0.3c0.5,0.5,0.8,1,0.8,1.5c0,0.5-0.2,0.9-0.8,1.4c0,0-0.1,0.1-0.2,0.1
			c-2.4,1.7-4.9,3.4-7.3,5.2c0,0-0.1,0.1-0.1,0.1l-3.1,3c-3.3,2.9-6.5,6-9.5,9.2c-0.4,0.5-0.8,0.9-1.2,1.4l-3.8,3.7
			c-1.1,1.5-2.3,3-3.4,4.5c-0.4,0.6-0.8,1.1-1.3,1.7c-0.8,1.1-1.6,2.3-2.4,3.5c-0.1,0.2-0.3,0.4-0.4,0.6c-4.1,6-7.6,12.2-10.4,18.8
			c-0.9,2.2-1.8,4.4-2.5,6.7c-3,9-4.6,18.7-4.6,29v1c0.1,6.8,0.8,13.4,2.2,19.6c2.5,11.1,7,21.2,13.5,30.4
			c4.6,6.5,10.2,12.4,16.8,17.9c15,12.4,31.6,19.3,49.3,21.9c9.8,1.4,20,1.5,30.4,0.5c1.5-0.2,2.9-0.3,4.4-0.5
			c2.8-0.4,5.5-0.8,8.2-1.3c0.2,0.1,0.4,0.2,0.5,0.3c0.3,0.4,0.5,0.8,0.5,1.6c0,0.1,0,0.3,0,0.5c0,0.3-0.1,0.7-0.1,1.1
			c-1.4,8.4-2.1,16.8-1.8,25.3c0.1,2.3,0.2,4.6,0.4,6.9c0.2,2.7,0.5,5.3,0.8,7.9c0.2,1.6,0.5,3.2,0.8,4.8c1.3,7.2,3.2,14.1,5.8,20.7
			c0.9,2.2,1.9,4.4,2.9,6.5c4.2,8.5,9.8,16.6,17.1,23.9l0.7,0.7c4.8,4.8,10,9,15.3,12.4c9.5,6.2,19.9,10.2,31,12.2
			c7.8,1.4,16,1.7,24.6,1c19.4-1.6,36.1-8.4,50.5-18.9c8-5.9,15.3-13,22-21.1c0.9-1.1,1.9-2.3,2.8-3.4
			c10.2-13.1,18.1-27.4,23.9-42.5c-1.4-0.9-2.6-1.8-3.7-2.6c-4.3-3.1-8.5-6.4-12.4-9.9c-2.4-2.1-4.5-4.1-6.5-6.1
			c0,0-0.1-0.1-0.1-0.1c-0.8-0.8-1.6-1.6-2.3-2.4c-1.2-1.3-2.4-2.6-3.7-4.1c-0.4-0.4-0.8-0.9-1.1-1.3c-0.9-1.1-1.8-2.2-2.6-3.3h-1
			c-10.1,0-20-1.1-29.7-3.5c-62.8-15.1-88-71.9-92.4-83.2c-2.6-6.6,0.7-14.2,7.3-16.8c6.7-2.6,14.2,0.7,16.8,7.3
			c2.2,5.6,23,55.2,74.4,67.5c4.2,1,8.4,1.7,12.7,2.2c-0.2-1.1-0.4-2.2-0.5-3.3c-0.1-0.6-0.1-1.3-0.1-1.9v-6.2c0-0.6,0-1.2,0.1-1.9
			c0.1-0.6,0.2-1.2,0.3-1.8c0-0.1,0-0.3,0.1-0.5c0-0.1,0-0.2,0-0.2c1.7-9.9,6.5-18.2,13.8-24c0.4-0.3,0.8-0.6,1.3-1
			c0,0,0.1-0.1,0.1-0.1c1-0.7,2-1.4,3-2c0.1-0.1,0.2-0.1,0.3-0.2l0.2-0.1l0.6-0.4c0.1,0,0.2-0.1,0.3-0.1c1.6-0.9,3.3-1.6,4.9-2.3
			c0.1,0,0.1,0,0.1,0l0.2-0.1c0.3-0.1,0.6-0.3,0.9-0.3c0.4-0.1,0.8-0.3,1.4-0.4c0.4-0.1,0.8-0.2,1.2-0.3l0.2,0
			c0.1,0,0.3-0.1,0.4-0.1c0.3-0.1,0.6-0.1,1-0.2c0.3-0.1,0.7-0.1,1-0.2l0.1,0l0.4-0.1c0.4-0.1,0.7-0.1,1-0.1c0.4,0,0.8-0.1,1.2-0.1
			c0.1,0,0.3,0,0.4,0l0.2,0l0.5,0c0.4,0,0.7,0,1,0c0.3,0,0.6,0,0.9,0h0c2.2,0,4.4,0.2,6.7,0.6c0.8,0.1,1.6,0.3,2.4,0.5
			c2.7,0.7,5.5,1.7,8.2,3c0,0,0.1,0,0.1,0.1c1.8,0.9,3.6,1.9,5.3,3.1c0.1-0.1,0.3-0.2,0.4-0.3c2.4-1.6,4.8-3,7.4-4c0,0,0.1,0,0.1,0
			c0.7-0.3,1.6-0.6,2.7-1c3.8-1.3,7.8-1.9,11.8-1.9h0.4c2.7,0,5.4,0.3,7.9,0.9c4.7,1,9,2.9,12.9,5.8c2.6,1.8,5,4.1,7.3,6.8
			c4.7,5.7,7.7,12.3,8.7,19.6c0.5,3.5,0.6,7.2,0.2,10.9c-0.1,0.7-0.1,1.4-0.3,2.1c-0.1,0.7-0.2,1.3-0.3,2c4.3-0.4,8.6-1.2,12.8-2.2
			c51.4-12.3,72.2-61.9,74.4-67.5c2.6-6.7,10.1-9.9,16.8-7.3c6.6,2.6,9.9,10.1,7.3,16.8c-4.4,11.3-29.6,68.1-92.4,83.2
			c-9.7,2.3-19.7,3.5-29.7,3.5h-1.2c-0.9,1.1-1.8,2.3-2.8,3.5c-1.6,1.9-3.1,3.6-4.5,5.1c-0.1,0.1-0.2,0.2-0.3,0.3
			c-0.9,0.9-1.8,1.9-2.9,3c-2.3,2.3-4.5,4.3-6.5,6.1c-3.5,3.1-7.4,6.2-11.6,9.2c-1.3,0.9-2.5,1.8-3.8,2.7
			c5.8,15.2,13.6,29.4,23.9,42.5c0.9,1.2,1.9,2.3,2.8,3.4c6.7,8.1,14,15.2,22,21.1c14.4,10.6,31.1,17.3,50.5,18.9
			c8.5,0.7,16.7,0.4,24.6-1c11.1-1.9,21.4-5.9,31-12.2c5.4-3.5,10.5-7.6,15.3-12.4l0.7-0.7c7.2-7.3,12.8-15.3,17.1-23.9
			c1.1-2.1,2-4.3,2.9-6.5c2.6-6.6,4.5-13.5,5.8-20.7c0.3-1.6,0.5-3.2,0.8-4.8c0.4-2.6,0.6-5.2,0.8-7.9c0.2-2.3,0.3-4.6,0.4-6.9
			c0.3-8.5-0.4-16.9-1.8-25.3c-0.1-0.4-0.1-0.8-0.1-1.1c0-0.2,0-0.3,0-0.5c0-0.7,0.1-1.2,0.5-1.6c0.1-0.1,0.3-0.2,0.5-0.3
			c2.7,0.5,5.5,1,8.2,1.3c1.5,0.2,2.9,0.4,4.4,0.5c10.4,1.1,20.6,1,30.4-0.5c17.7-2.6,34.3-9.5,49.3-21.9
			c6.6-5.5,12.2-11.4,16.8-17.9c6.5-9.2,11.1-19.3,13.5-30.4c1.4-6.2,2.1-12.8,2.2-19.6v-1c0-10.3-1.6-19.9-4.6-29
			c-0.8-2.3-1.6-4.5-2.5-6.7c-2.8-6.6-6.2-12.8-10.4-18.8c-0.1-0.2-0.3-0.4-0.4-0.6c-0.8-1.2-1.6-2.3-2.4-3.5
			c-0.4-0.6-0.8-1.1-1.3-1.7c-1.1-1.5-2.3-3-3.4-4.5l-3.8-3.7c-0.4-0.4-0.8-0.9-1.2-1.4c-3-3.3-6.2-6.3-9.5-9.2l-3.1-3
			c0,0-0.1-0.1-0.1-0.1c-2.4-1.8-4.8-3.5-7.3-5.2c0,0-0.1-0.1-0.1-0.1c-0.5-0.5-0.8-1-0.8-1.4c0-0.5,0.3-0.9,0.8-1.5
			C827,424.7,827.1,424.6,827.2,424.5z M430.6,428.8c-37.8,0-68.4-30.6-68.4-68.4s30.6-68.4,68.4-68.4c37.8,0,68.4,30.6,68.4,68.4
			S468.3,428.8,430.6,428.8z M540,529.4c-26.9,0-48.8-21.9-48.8-48.8c0-7.1,5.8-12.9,12.9-12.9c7.2,0,12.9,5.8,12.9,12.9
			c0,12.6,10.3,22.9,22.9,22.9c12.6,0,22.9-10.3,22.9-22.9c0-7.1,5.8-12.9,12.9-12.9s12.9,5.8,12.9,12.9
			C588.8,507.5,566.9,529.4,540,529.4z M649.4,428.8c-37.8,0-68.4-30.6-68.4-68.4s30.6-68.4,68.4-68.4c37.8,0,68.4,30.6,68.4,68.4
			S687.2,428.8,649.4,428.8z"/>
		<path class="st0" d="M665.5,305.4c-22.1,0-40,17.9-40,40c0,22.1,17.9,40,40,40c22.1,0,40-17.9,40-40c0-1.4-0.1-2.7-0.2-4
			c-0.7-6.7-3-12.9-6.5-18.2C691.5,312.4,679.3,305.4,665.5,305.4z"/>
		<path class="st0" d="M486.4,341.3c-0.7-6.7-3-12.9-6.5-18.2c-7.2-10.7-19.4-17.7-33.2-17.7c-22.1,0-40,17.9-40,40
			c0,22.1,17.9,40,40,40s40-17.9,40-40C486.6,344,486.5,342.6,486.4,341.3z"/>
		<path class="st0" d="M566.3,616.1c0.9-0.9,1.8-1.8,2.7-2.8c0,0,0-0.1,0.1-0.1c1.4-1.5,2.8-3,4-4.5c1.3-1.5,2.6-3.1,3.8-4.8
			c0.5-0.7,1-1.4,1.5-2.1c2.6-4.1,4.6-8.4,5.8-13.1c0.4-1.5,0.7-3.1,0.9-4.7c0.1-0.4,0.1-0.7,0.1-1.1c0.3-2.6,0.3-5.2-0.1-7.6
			c-0.6-4.4-2.4-8.6-5.5-12.4c-1.4-1.6-2.9-3.1-4.5-4.2c-2.3-1.6-4.8-2.8-7.6-3.4c-1.6-0.4-3.2-0.5-4.9-0.6h-0.3
			c-2.6,0-5,0.4-7.3,1.2c-0.6,0.2-1.1,0.4-1.7,0.6c-1.6,0.7-3.2,1.6-4.7,2.6c-0.3,0.2-0.6,0.5-1,0.7c-0.5,0.4-1.1,0.8-1.6,1.3
			c-0.4,0.4-0.9,0.8-1.3,1.1c-1.6,1.5-3,3.1-4.2,4.8c0,0.1-0.1,0.1-0.2,0.2c0,0,0,0.1-0.1,0.1c-0.1,0.1-0.3,0.2-0.4,0.2
			c-0.1,0-0.2-0.1-0.4-0.2c0,0-0.1-0.1-0.1-0.1c-0.1-0.1-0.1-0.1-0.2-0.2c-1.9-2.5-4-4.8-6.4-6.7c-1.4-1.1-3-2.1-4.6-2.9
			c-1.9-0.9-3.8-1.6-5.6-2c-0.5-0.1-0.9-0.2-1.4-0.3c-1.4-0.2-2.7-0.4-4.1-0.4h0c-0.3,0-0.6,0-0.9,0h0c-0.3,0-0.6,0-0.9,0.1h-0.1
			c-0.3,0-0.5,0.1-0.8,0.1h-0.1c-0.3,0-0.5,0.1-0.8,0.1c0,0-0.1,0-0.1,0c-0.3,0.1-0.5,0.1-0.8,0.2c-0.4,0.1-0.8,0.2-1.2,0.3
			c-0.2,0-0.4,0.1-0.6,0.2c-0.3,0.1-0.6,0.2-0.9,0.3c-1,0.4-2,0.8-3,1.4c-0.3,0.2-0.6,0.3-0.9,0.5c-0.7,0.4-1.4,0.9-2,1.4
			c-0.3,0.2-0.6,0.5-0.9,0.7c-4.8,3.8-7.4,9-8.4,15c0,0.2-0.1,0.3-0.1,0.5c-0.1,0.5-0.1,0.9-0.2,1.4v6.2c0,0,0,0,0,0
			c0.3,1.9,0.6,3.8,1.1,5.7c0.5,2.1,1.3,4.2,2.1,6.2c1,2.4,2.2,4.6,3.6,6.8c1.6,2.4,3.3,4.7,5.2,7c0.3,0.3,0.6,0.7,0.9,1
			c1.1,1.3,2.2,2.5,3.3,3.7c0.7,0.8,1.5,1.5,2.2,2.3c1.9,1.9,3.9,3.8,5.9,5.5c3.6,3.2,7.3,6.1,11.2,8.9c1.1,0.8,2.3,1.6,3.5,2.4
			c1.6,1.1,3.3,2.2,5,3.2c0.1,0.1,0.3,0.2,0.4,0.2c0.1,0,0.3,0.1,0.4,0.1c0.3,0.1,0.5,0.1,0.7,0.1c0.4,0,0.9-0.2,1.4-0.5
			c1.4-0.9,2.7-1.7,4-2.6c1.5-1,3.1-2.1,4.6-3.2c3.6-2.6,7.2-5.4,10.5-8.3C562.5,619.8,564.4,618,566.3,616.1z"/>
	</g>
</g>
</svg>
