<?xml version="1.0" encoding="utf-8"?>
<!-- Generator: Adobe Illustrator 27.0.0, SVG Export Plug-In . SVG Version: 6.00 Build 0)  -->
<svg version="1.1" id="Capa_1" xmlns="http://www.w3.org/2000/svg" xmlns:xlink="http://www.w3.org/1999/xlink" x="0px" y="0px"
	 viewBox="0 0 1080 1080" style="enable-background:new 0 0 1080 1080;" xml:space="preserve">
<style type="text/css">
	.st0{fill:#2C3E50;}
	.st1{fill:url(#SVGID_1_);}
	.st2{fill:#FFFFFF;}
</style>
<g>
	<g>
		<path class="st0" d="M176.9,959.1c-9.2,0-15.2-4.7-18.6-13L109.7,830c-1.1-2.6-1.9-5.1-1.9-7.9c0-9.2,7.3-16.2,16.5-16.2
			c8.6,0,14.1,4.9,16.7,11.5l37.4,96.9l37.8-97.9c2.4-5.3,7.9-10.5,15.8-10.5c9.2,0,16.2,6.6,16.2,15.8c0,2.6-0.9,5.3-1.7,7.3
			l-49,117.2c-3.4,8.3-9.4,13-18.6,13H176.9z"/>
		<path class="st0" d="M265.4,814.8c0-9.4,7.9-15.2,18.2-15.2c10.3,0,18.2,5.8,18.2,15.2v0.4c0,9.4-7.9,15.4-18.2,15.4
			c-10.3,0-18.2-6-18.2-15.4V814.8z M267.3,857.1c0-9.2,7.1-16.2,16.2-16.2c9.2,0,16.2,7.1,16.2,16.2v84.7c0,9.2-7.1,16.2-16.2,16.2
			c-9.2,0-16.2-7.1-16.2-16.2V857.1z"/>
		<path class="st0" d="M445.6,941.8c0,9.2-7.1,16.2-16.2,16.2c-9.2,0-16.2-7.1-16.2-16.2v-1.5c-7.9,10.9-18.6,18.6-35.7,18.6
			c-26.7,0-52.2-21-52.2-59.2v-0.4c0-38.3,25-59.2,52.2-59.2c17.3,0,28,7.9,35.7,17.1v-41.5c0-9.2,7.1-16.2,16.2-16.2
			c9.2,0,16.2,7.1,16.2,16.2V941.8z M357.7,899.3v0.4c0,19,12.8,31.6,28,31.6c15.2,0,27.8-12.6,27.8-31.6v-0.4
			c0-19-12.6-31.6-27.8-31.6C370.6,867.6,357.7,880,357.7,899.3z"/>
		<path class="st0" d="M467.8,923.9v-0.4c0-24.8,19-36.6,46.2-36.6c11.8,0,19.7,1.9,28,4.7v-1.9c0-13.7-8.3-21-24.6-21
			c-9.2,0-16.2,1.3-22.4,3.2c-1.7,0.6-3.2,0.9-4.7,0.9c-7.5,0-13.5-5.8-13.5-13.3c0-5.8,3.6-10.7,8.8-12.6c10.3-4.1,21.2-6,36.6-6
			c18,0,30.4,4.5,38.7,12.8c8.6,8.6,12.4,21.2,12.4,36.6v52.2c0,8.8-7.1,15.6-15.8,15.6c-9.4,0-15.6-6.6-15.6-13.5v-0.2
			c-7.9,8.8-18.6,14.5-34.6,14.5C485.6,958.9,467.8,946.7,467.8,923.9z M542.5,916.4v-5.8c-5.8-2.6-12.8-4.3-20.7-4.3
			c-13.9,0-22.4,5.6-22.4,15.8v0.4c0,8.8,7.3,13.9,17.7,13.9C532.4,936.5,542.5,928.3,542.5,916.4z"/>
		<path class="st0" d="M602.3,956c-7.9,0-14.5-6.6-14.5-14.5v-0.6c0-5.6,1.9-10.7,6-15.4l77.6-90.2h-66.5c-7.9,0-14.5-6.4-14.5-14.3
			s6.6-14.5,14.5-14.5h95.6c7.9,0,14.5,6.6,14.5,14.5v0.6c0,5.3-1.9,10.5-6,15.4l-77.6,90.2h69.1c7.9,0,14.5,6.6,14.5,14.5
			s-6.6,14.3-14.5,14.3H602.3z"/>
		<path class="st0" d="M790.5,958.6c-34.4,0-59.9-24.2-59.9-59.2v-0.4c0-32.7,23.3-59.6,56.7-59.6c38.5,0,55.2,31.2,55.2,55.2
			c0,9.4-6.6,15.6-15.2,15.6h-64.4c3.2,14.8,13.5,22.4,28,22.4c9.2,0,16.5-2.8,23.1-7.7c2.4-1.7,4.5-2.6,7.9-2.6
			c7.5,0,12.6,5.3,12.6,12.8c0,4.3-1.9,7.3-4.3,9.6C820.2,953.2,807.3,958.6,790.5,958.6z M811.4,889.7
			c-1.9-14.5-10.5-24.4-24.2-24.4s-22.2,9.6-24.8,24.4H811.4z"/>
		<path class="st0" d="M867.2,856.4c0-9.2,7.1-16.2,16.2-16.2c9.2,0,16.2,7.1,16.2,16.2v1.3c7.5-9.6,17.3-18.4,33.6-18.4
			c24.8,0,38.9,16,38.9,42.5v59.2c0,9.2-7.1,16.2-16.2,16.2c-9.2,0-16.2-7.1-16.2-16.2v-49c0-15.4-7.1-23.3-19.7-23.3
			c-12.6,0-20.3,7.9-20.3,23.3v49c0,9.2-7.1,16.2-16.2,16.2c-9.2,0-16.2-7.1-16.2-16.2V856.4z"/>
	</g>
	<g>
		<linearGradient id="SVGID_1_" gradientUnits="userSpaceOnUse" x1="308.1472" y1="657.6776" x2="771.8531" y2="193.9716">
			<stop  offset="0" style="stop-color:#A2D9CE"/>
			<stop  offset="0.9993" style="stop-color:#85C1E9"/>
		</linearGradient>
		<path class="st1" d="M827.2,424.5c0.2-0.2,0.5-0.4,0.8-0.7c10.1-7.5,19.2-15.8,26.8-25.5c4.5-5.7,8.4-11.8,11.6-18.5
			c3.6-7.5,6.3-14.9,8.2-22.2c0.5-1.8,0.9-3.7,1.2-5.5c1-5.5,1.6-10.9,1.6-16.3v0c0-1.2,0-2.3-0.1-3.5v-0.1c0-1.2-0.1-2.3-0.2-3.4
			c0-0.1,0-0.2,0-0.3c-0.1-1.1-0.2-2.1-0.3-3.2c0-0.1,0-0.3-0.1-0.4c-0.1-1-0.3-2-0.5-3c0-0.2-0.1-0.4-0.1-0.6
			c-0.2-1.1-0.4-2.1-0.7-3.2c-0.4-1.6-0.8-3.2-1.2-4.8c-0.2-0.7-0.4-1.5-0.7-2.2c-0.4-1.2-0.8-2.3-1.2-3.5c-1.5-4.1-3.4-8.1-5.5-12
			c-0.6-1.1-1.3-2.3-1.9-3.4c-1.6-2.7-3.5-5.4-5.4-8.1c-0.9-1.2-1.8-2.4-2.7-3.6c-15.2-19.1-35.9-29.4-59.8-33.6
			c-0.7-0.1-1.4-0.2-2.1-0.3c-1.8-0.3-3.7-0.6-5.6-0.9h-5.3c-5.1-0.3-10.3-0.3-15.5,0h-3.9c-0.1,0-0.1,0-0.2,0
			c-2.1,0.3-4.2,0.6-6.3,0.9c-1.1,0.1-2.2,0.3-3.4,0.4c-0.4,0.1-0.8,0.1-1.1,0.1c-0.2,0-0.3,0-0.5,0c-0.7,0-1.2-0.2-1.6-0.5
			c-0.3-0.3-0.5-0.8-0.5-1.5c0-0.2,0-0.3,0-0.5c0-0.3,0.1-0.7,0.1-1.1c1.4-8.4,2.1-16.8,1.8-25.3c-0.1-2.3-0.2-4.6-0.4-7
			c-0.2-2.7-0.5-5.3-0.8-7.9c-0.2-1.6-0.5-3.2-0.7-4.8c-1.3-7.2-3.2-14.1-5.8-20.7c-0.9-2.2-1.9-4.4-2.9-6.5
			c-4.2-8.6-9.8-16.6-17.1-23.9l-0.7-0.7c-4.8-4.8-10-9-15.3-12.4c-9.6-6.2-19.9-10.2-31-12.2c-7.8-1.4-16-1.7-24.6-1
			c-19.4,1.6-36.1,8.4-50.5,19c-8,5.9-15.3,13-22,21c-0.9,1.1-1.9,2.3-2.8,3.5c-16,20.5-26.1,43.6-31.6,68.7
			c-0.8,3.4-1.4,6.8-2,10.2c-1.3,8-2.3,16-3.1,24.1c-0.8,8.2-1.3,16.4-1.6,24.7c-0.2,4.8-0.3,9.6-0.3,14.5h0c0-4.8-0.1-9.7-0.3-14.5
			c-0.3-8.2-0.8-16.5-1.6-24.7c-0.7-8-1.8-16.1-3.1-24.1c-0.6-3.5-1.2-6.9-2-10.2c-5.5-25.1-15.7-48.2-31.6-68.7
			c-0.9-1.2-1.8-2.3-2.8-3.5c-6.7-8.1-14-15.1-22-21c-14.4-10.6-31.1-17.3-50.5-19c-8.5-0.7-16.7-0.4-24.6,1
			c-11.1,1.9-21.4,5.9-31,12.2c-5.4,3.5-10.5,7.6-15.3,12.4l-0.7,0.7c-7.2,7.4-12.8,15.4-17.1,23.9c-1.1,2.1-2,4.3-2.9,6.5
			c-2.7,6.6-4.6,13.5-5.8,20.7c-0.3,1.6-0.5,3.2-0.7,4.8c-0.4,2.6-0.6,5.2-0.8,7.9c-0.2,2.3-0.3,4.6-0.4,7
			c-0.3,8.5,0.4,16.9,1.8,25.3c0.1,0.4,0.1,0.7,0.1,1.1c0,0.2,0,0.3,0,0.5c0,0.7-0.1,1.2-0.5,1.5c-0.3,0.3-0.8,0.5-1.6,0.5
			c-0.1,0-0.3,0-0.5,0c-0.3,0-0.7,0-1.1-0.1c-1.1-0.2-2.2-0.3-3.4-0.4c-2.1-0.3-4.2-0.7-6.3-0.9c-0.1,0-0.1,0-0.2,0h-3.9
			c-5.2-0.3-10.3-0.3-15.5,0h-5.3c-1.9,0.3-3.7,0.6-5.6,0.9c-0.7,0.1-1.4,0.2-2.1,0.3c-23.9,4.2-44.6,14.5-59.8,33.6
			c-0.9,1.2-1.9,2.4-2.7,3.6c-2,2.7-3.8,5.4-5.4,8.1c-0.7,1.1-1.3,2.3-1.9,3.4c-2.2,4-4,8-5.5,12c-0.4,1.2-0.8,2.3-1.2,3.5
			c-0.3,0.7-0.5,1.5-0.7,2.2c-0.5,1.6-0.9,3.2-1.2,4.8c-0.3,1.1-0.5,2.1-0.7,3.2c0,0.2-0.1,0.4-0.1,0.6c-0.2,1-0.3,2-0.5,3
			c0,0.1,0,0.3-0.1,0.4c-0.1,1.1-0.3,2.1-0.3,3.2c0,0.1,0,0.2,0,0.3c-0.1,1.1-0.2,2.3-0.2,3.4v0.1c-0.1,1.2-0.1,2.3-0.1,3.5v0
			c0,5.4,0.5,10.8,1.6,16.3c0.3,1.8,0.7,3.6,1.2,5.5c1.8,7.3,4.6,14.8,8.2,22.2c3.2,6.7,7.1,12.8,11.6,18.5
			c7.6,9.7,16.7,18,26.8,25.5c0.3,0.2,0.6,0.5,0.8,0.7c0.1,0.1,0.3,0.2,0.3,0.3c0.5,0.5,0.7,1,0.7,1.5c0,0.5-0.2,0.9-0.7,1.4
			c-0.1,0.1-0.1,0.1-0.2,0.2c-2.5,1.7-4.9,3.4-7.3,5.2c0,0-0.1,0.1-0.1,0.1l-3.1,3c-3.3,2.9-6.5,6-9.5,9.2c-0.4,0.4-0.8,0.9-1.2,1.4
			l-3.8,3.7c-1.1,1.5-2.3,3-3.4,4.5c-0.4,0.6-0.8,1.1-1.3,1.7c-0.8,1.2-1.6,2.3-2.4,3.5c-0.1,0.2-0.3,0.4-0.5,0.6
			c-4.1,6-7.6,12.2-10.4,18.8c-0.9,2.2-1.8,4.4-2.5,6.7c-3,9.1-4.6,18.7-4.6,29v1c0.1,6.8,0.8,13.4,2.2,19.6
			c2.5,11.1,7,21.3,13.5,30.4c4.6,6.5,10.2,12.4,16.8,17.9c15,12.4,31.6,19.4,49.3,21.9c9.8,1.4,20,1.5,30.4,0.4
			c1.5-0.1,2.9-0.3,4.4-0.5c2.8-0.4,5.5-0.8,8.2-1.3c0.2,0.1,0.4,0.2,0.5,0.3c0.3,0.3,0.5,0.8,0.5,1.5c0,0.2,0,0.3,0,0.5
			c0,0.3-0.1,0.7-0.1,1.1c-1.4,8.4-2.1,16.8-1.8,25.3c0.1,2.3,0.2,4.6,0.4,7c0.2,2.7,0.5,5.3,0.8,7.9c0.2,1.6,0.5,3.2,0.7,4.8
			c1.3,7.2,3.2,14.1,5.8,20.7c0.9,2.2,1.9,4.4,2.9,6.5c4.2,8.6,9.8,16.6,17.1,23.9l0.7,0.7c4.8,4.8,10,9,15.3,12.4
			c9.6,6.2,19.9,10.2,31,12.2c7.8,1.4,16,1.7,24.6,1c19.4-1.6,36.1-8.4,50.5-19c8-5.9,15.3-13,22-21c0.9-1.1,1.9-2.3,2.8-3.5
			c16-20.5,26.1-43.6,31.6-68.7c0.8-3.4,1.4-6.8,2-10.2c0.7-4.2,1.3-8.4,1.8-12.6h6.3c0.5,4.2,1.1,8.4,1.8,12.6
			c0.6,3.5,1.2,6.9,2,10.2c5.5,25.1,15.7,48.2,31.6,68.7c0.9,1.2,1.8,2.3,2.8,3.5c6.7,8.1,14,15.1,22,21
			c14.4,10.6,31.1,17.3,50.5,19c8.5,0.7,16.7,0.4,24.6-1c11.1-1.9,21.4-5.9,31-12.2c5.4-3.5,10.5-7.6,15.3-12.4l0.7-0.7
			c7.2-7.4,12.8-15.4,17.1-23.9c1.1-2.1,2-4.3,2.9-6.5c2.7-6.6,4.6-13.5,5.8-20.7c0.3-1.6,0.5-3.2,0.7-4.8c0.4-2.6,0.6-5.2,0.8-7.9
			c0.2-2.3,0.3-4.6,0.4-7c0.3-8.5-0.4-16.9-1.8-25.3c-0.1-0.4-0.1-0.7-0.1-1.1c0-0.2,0-0.3,0-0.5c0-0.7,0.1-1.2,0.5-1.5
			c0.1-0.1,0.3-0.2,0.5-0.3c2.7,0.5,5.5,0.9,8.2,1.3c1.5,0.2,2.9,0.4,4.4,0.5c10.4,1.1,20.6,1,30.4-0.4c17.7-2.6,34.3-9.5,49.3-21.9
			c6.6-5.5,12.2-11.4,16.8-17.9c6.5-9.1,11.1-19.3,13.5-30.4c1.4-6.2,2.1-12.8,2.2-19.6v-1c0-10.3-1.6-20-4.6-29
			c-0.7-2.3-1.6-4.5-2.5-6.7c-2.8-6.6-6.2-12.8-10.4-18.8c-0.1-0.2-0.3-0.4-0.5-0.6c-0.8-1.2-1.6-2.3-2.4-3.5
			c-0.4-0.6-0.8-1.1-1.3-1.7c-1.1-1.5-2.2-3-3.4-4.5l-3.8-3.7c-0.4-0.4-0.8-0.9-1.2-1.4c-3-3.3-6.2-6.3-9.5-9.2l-3.1-3
			c0,0-0.1-0.1-0.1-0.1c-2.4-1.8-4.8-3.5-7.3-5.2c-0.1-0.1-0.1-0.1-0.2-0.2c-0.5-0.5-0.7-1-0.7-1.4c0-0.5,0.3-0.9,0.7-1.5
			C827,424.7,827.1,424.6,827.2,424.5z"/>
		<g>
			<g>
				<g>
					<circle class="st2" cx="649.4" cy="360.4" r="68.4"/>
				</g>
				<g>
					<path class="st0" d="M705.5,345.3c0,22.1-17.9,40-40,40c-22.1,0-40-17.9-40-40c0-22.1,17.9-40,40-40c13.8,0,26,7,33.2,17.7
						c3.6,5.3,5.9,11.5,6.6,18.2C705.4,342.6,705.5,344,705.5,345.3z"/>
				</g>
			</g>
			<g>
				<g>
					<circle class="st2" cx="430.6" cy="360.4" r="68.4"/>
				</g>
				<g>
					<path class="st0" d="M486.6,345.3c0,22.1-17.9,40-40,40c-22.1,0-40-17.9-40-40c0-22.1,17.9-40,40-40c13.8,0,26,7,33.2,17.7
						c3.6,5.3,5.9,11.5,6.6,18.2C486.5,342.6,486.6,344,486.6,345.3z"/>
				</g>
			</g>
		</g>
		<path class="st2" d="M540,529.4c-26.9,0-48.8-21.9-48.8-48.8c0-7.2,5.8-12.9,12.9-12.9c7.2,0,12.9,5.8,12.9,12.9
			c0,12.6,10.3,22.9,22.9,22.9s22.9-10.3,22.9-22.9c0-7.2,5.8-12.9,12.9-12.9c7.2,0,12.9,5.8,12.9,12.9
			C588.8,507.5,566.9,529.4,540,529.4z"/>
		<g>
			<path class="st2" d="M510.8,613.3c-6.4,0.9-12.8,1.4-19.1,1.4c-10.1,0-20-1.2-29.7-3.5c-62.8-15-88-71.9-92.4-83.2
				c-2.6-6.6,0.7-14.2,7.3-16.8c6.7-2.6,14.2,0.7,16.8,7.3c2.2,5.6,23,55.2,74.4,67.5c9,2.2,18.3,3,27.7,2.7
				c0.5,2.1,1.2,4.2,2.1,6.2c1,2.4,2.2,4.6,3.6,6.8c1.6,2.4,3.3,4.7,5.2,7c0.3,0.3,0.6,0.7,0.9,1
				C508.5,610.9,509.6,612.1,510.8,613.3z"/>
			<path class="st2" d="M710.5,528c-4.4,11.3-29.6,68.2-92.4,83.2c-9.7,2.3-19.7,3.5-29.7,3.5c-6.4,0-12.8-0.5-19.2-1.4
				c1.4-1.5,2.7-3,4-4.5c1.3-1.5,2.6-3.1,3.8-4.8c0.5-0.7,1-1.4,1.5-2.2c2.7-4.1,4.6-8.4,5.8-13.1c9.5,0.4,18.8-0.5,27.8-2.7
				c51.4-12.3,72.2-61.8,74.4-67.5c2.6-6.7,10.1-9.9,16.8-7.3S713.1,521.3,710.5,528z"/>
		</g>
		<g>
			<path class="st0" d="M560.4,621.6c2-1.8,4-3.6,5.9-5.5c0.9-0.9,1.8-1.8,2.7-2.7c1.4-1.5,2.8-3,4.1-4.6c1.3-1.6,2.6-3.1,3.8-4.8
				c0.5-0.7,1-1.4,1.5-2.2c3.5-5.4,5.9-11.3,6.7-17.8c0-0.4,0.1-0.7,0.1-1.1c0.3-2.6,0.2-5.2-0.1-7.6c-0.6-4.4-2.4-8.6-5.5-12.4
				c-1.4-1.7-2.9-3.1-4.5-4.2c-2.3-1.6-4.8-2.8-7.6-3.4c-1.6-0.3-3.2-0.5-4.9-0.5h-0.2c-2.6,0-5,0.4-7.3,1.2
				c-0.6,0.2-1.1,0.4-1.7,0.6c-1.7,0.7-3.2,1.6-4.7,2.6c-0.3,0.2-0.7,0.5-1,0.7c-0.5,0.4-1.1,0.8-1.6,1.2c-0.4,0.4-0.9,0.8-1.3,1.2
				c-1.6,1.4-3,3.1-4.2,4.8c-0.1,0.1-0.1,0.2-0.2,0.2c0,0-0.1,0.1-0.1,0.1c-0.1,0.1-0.2,0.2-0.4,0.2c-0.1,0-0.2-0.1-0.4-0.2
				c0,0-0.1-0.1-0.1-0.1c-0.1-0.1-0.1-0.1-0.2-0.2c-1.9-2.5-4-4.8-6.4-6.7c-1.4-1.1-3-2.1-4.6-2.9c-1.9-0.9-3.7-1.6-5.6-2.1
				c-0.5-0.1-0.9-0.2-1.4-0.3c-1.4-0.3-2.7-0.4-4.1-0.4h0c-0.3,0-0.6,0-0.9,0h0c-0.3,0-0.6,0-0.9,0.1c0,0,0,0-0.1,0
				c-0.3,0-0.5,0-0.8,0.1c0,0-0.1,0-0.1,0c-0.3,0-0.5,0.1-0.8,0.1c-0.1,0-0.1,0-0.2,0c-0.3,0-0.5,0.1-0.8,0.2
				c-0.4,0.1-0.8,0.2-1.2,0.3c-0.2,0-0.4,0.1-0.6,0.2c-0.3,0.1-0.6,0.2-0.9,0.3c-1,0.4-2,0.8-3,1.4c-0.3,0.2-0.6,0.3-0.9,0.5
				c-0.7,0.4-1.4,0.9-2,1.4c-0.3,0.2-0.6,0.5-0.9,0.7c-4.8,3.8-7.4,9-8.4,15c0,0.2-0.1,0.3-0.1,0.5c-0.1,0.5-0.1,0.9-0.2,1.4v6.2
				c0,0,0,0,0,0c0.5,4.1,1.6,8,3.2,11.9c1,2.4,2.2,4.6,3.6,6.8c1.6,2.4,3.3,4.7,5.2,7c0.3,0.3,0.6,0.7,0.9,1c1.8,2.1,3.6,4,5.5,6
				c1.9,1.9,3.9,3.8,5.9,5.6c4.6,4.1,9.5,7.9,14.7,11.3h0c1.6,1.1,3.3,2.2,5,3.2c0.1,0.1,0.3,0.2,0.4,0.2c0.1,0.1,0.2,0.1,0.4,0.2
				c0.2,0.1,0.5,0.1,0.7,0.1c0.4,0,0.9-0.2,1.4-0.5c1.4-0.8,2.7-1.7,4-2.6C550.6,629.6,555.7,625.8,560.4,621.6z"/>
		</g>
	</g>
</g>
</svg>
